<svg xmlns="http://www.w3.org/2000/svg" viewBox="0 0 800 480" width="800" height="480" font-family="Arial, sans-serif">
  <rect width="800" height="480" fill="#F8FAFC" rx="12"/>
  <text x="400" y="36" text-anchor="middle" font-size="18" font-weight="700" fill="#1A2B4A">🔍 四层智能筛选漏斗</text>
  <polygon points="80,60 720,60 660,130 140,130" fill="#1A3A5C" opacity="0.9"/>
  <text x="400" y="88" text-anchor="middle" font-size="14" font-weight="700" fill="#FFFFFF">TIER 1 · 白名单域名</text>
  <text x="400" y="108" text-anchor="middle" font-size="11" fill="rgba(255,255,255,0.8)">@12306.cn · @didichuxing.com · @marriott.com · @meituan.com</text>
  <polygon points="140,140 660,140 600,210 200,210" fill="#005F73" opacity="0.9"/>
  <text x="400" y="168" text-anchor="middle" font-size="14" font-weight="700" fill="#FFFFFF">TIER 2 · 主题关键字</text>
  <text x="400" y="188" text-anchor="middle" font-size="11" fill="rgba(255,255,255,0.8)">发票 · 行程单 · 账单 · receipt · invoice</text>
  <polygon points="200,220 600,220 545,290 255,290" fill="#00897B" opacity="0.9"/>
  <text x="400" y="248" text-anchor="middle" font-size="14" font-weight="700" fill="#FFFFFF">TIER 3 · 正文关键字</text>
  <text x="400" y="268" text-anchor="middle" font-size="11" fill="rgba(255,255,255,0.8)">发票 · 报销 · 差旅 · 行程</text>
  <polygon points="255,300 545,300 490,370 310,370" fill="#00BFA5" opacity="0.9"/>
  <text x="400" y="328" text-anchor="middle" font-size="14" font-weight="700" fill="#FFFFFF">TIER 4 · 二维码探测</text>
  <text x="400" y="348" text-anchor="middle" font-size="11" fill="rgba(255,255,255,0.85)">pyzbar 扫描附件图片</text>
  <line x1="400" y1="375" x2="400" y2="415" stroke="#00BFA5" stroke-width="3" marker-end="url(#arrow)"/>
  <defs>
    <marker id="arrow" markerWidth="10" markerHeight="7" refX="9" refY="3.5" orient="auto">
      <polygon points="0 0, 10 3.5, 0 7" fill="#00BFA5"/>
    </marker>
  </defs>
  <rect x="270" y="420" width="260" height="44" rx="8" fill="#00BFA5"/>
  <text x="400" y="438" text-anchor="middle" font-size="13" font-weight="700" fill="#FFFFFF">✅ 通过 → 进入 AI 识别流程</text>
  <text x="400" y="455" text-anchor="middle" font-size="10" fill="rgba(255,255,255,0.85)">未通过任何层级 → 跳过该邮件</text>
  <line x1="75" y1="215" x2="125" y2="215" stroke="#E53E3E" stroke-width="2" stroke-dasharray="4"/>
  <rect x="10" y="198" width="65" height="34" rx="6" fill="#FED7D7"/>
  <text x="42" y="213" text-anchor="middle" font-size="11" fill="#C53030" font-weight="700">未命中</text>
  <text x="42" y="226" text-anchor="middle" font-size="10" fill="#C53030">下一层</text>
</svg>
