<svg xmlns="http://www.w3.org/2000/svg" viewBox="0 0 860 420" width="860" height="420" font-family="Arial, sans-serif">
  <rect width="860" height="420" fill="#F8FAFC" rx="12"/>
  <text x="430" y="32" text-anchor="middle" font-size="18" font-weight="700" fill="#1A2B4A">🤖 双引擎 AI 识别架构（Track A + B + Fallback）</text>
  <rect x="330" y="50" width="200" height="44" rx="8" fill="#1A3A5C"/>
  <text x="430" y="68" text-anchor="middle" font-size="13" font-weight="700" fill="#FFFFFF">📄 发票文件</text>
  <text x="430" y="84" text-anchor="middle" font-size="10" fill="rgba(255,255,255,0.7)">PDF / OFD / XML</text>
  <line x1="430" y1="94" x2="430" y2="118" stroke="#64748B" stroke-width="2" marker-end="url(#arr1)"/>
  <defs>
    <marker id="arr1" markerWidth="8" markerHeight="6" refX="7" refY="3" orient="auto"><polygon points="0 0, 8 3, 0 6" fill="#64748B"/></marker>
    <marker id="arr2" markerWidth="8" markerHeight="6" refX="7" refY="3" orient="auto"><polygon points="0 0, 8 3, 0 6" fill="#1A3A5C"/></marker>
    <marker id="arr3" markerWidth="8" markerHeight="6" refX="7" refY="3" orient="auto"><polygon points="0 0, 8 3, 0 6" fill="#00BFA5"/></marker>
    <marker id="arr4" markerWidth="8" markerHeight="6" refX="7" refY="3" orient="auto"><polygon points="0 0, 8 3, 0 6" fill="#F6C90E"/></marker>
    <marker id="arr5" markerWidth="8" markerHeight="6" refX="7" refY="3" orient="auto"><polygon points="0 0, 8 3, 0 6" fill="#2D9E8F"/></marker>
  </defs>
  <rect x="305" y="118" width="250" height="36" rx="6" fill="#E2E8F0" stroke="#CBD5E0" stroke-width="1"/>
  <text x="430" y="133" text-anchor="middle" font-size="11" fill="#2D3748">PDF 渲染 · 最多2页 · 1.5× 缩放</text>
  <text x="430" y="147" text-anchor="middle" font-size="10" fill="#718096">防内存溢出 · 转 Base64 图像</text>
  <line x1="430" y1="154" x2="430" y2="166" stroke="#64748B" stroke-width="2"/>
  <line x1="430" y1="166" x2="160" y2="166" stroke="#64748B" stroke-width="2"/>
  <line x1="430" y1="166" x2="700" y2="166" stroke="#64748B" stroke-width="2"/>
  <line x1="160" y1="166" x2="160" y2="180" stroke="#1A3A5C" stroke-width="2" marker-end="url(#arr2)"/>
  <line x1="700" y1="166" x2="700" y2="180" stroke="#00BFA5" stroke-width="2" marker-end="url(#arr3)"/>
  <rect x="50" y="180" width="220" height="108" rx="10" fill="#1A3A5C" stroke="#1A3A5C" stroke-width="2"/>
  <rect x="50" y="180" width="220" height="26" rx="10" fill="#1A3A5C"/>
  <rect x="50" y="194" width="220" height="12" fill="#1A3A5C"/>
  <text x="160" y="197" text-anchor="middle" font-size="12" font-weight="700" fill="#FFFFFF">🔵 Track A  首选</text>
  <rect x="62" y="212" width="196" height="28" rx="5" fill="rgba(255,255,255,0.1)"/>
  <text x="160" y="223" text-anchor="middle" font-size="10" fill="rgba(255,255,255,0.9)">① glm-ocr</text>
  <text x="160" y="235" text-anchor="middle" font-size="9" fill="rgba(255,255,255,0.6)">layout_parsing · OCR超时90s</text>
  <text x="160" y="252" text-anchor="middle" font-size="9" fill="#00BFA5">↓ Markdown结构化文本</text>
  <rect x="62" y="258" width="196" height="26" rx="5" fill="rgba(255,255,255,0.1)"/>
  <text x="160" y="270" text-anchor="middle" font-size="10" fill="rgba(255,255,255,0.9)">② glm-4-flash</text>
  <text x="160" y="281" text-anchor="middle" font-size="9" fill="rgba(255,255,255,0.6)">文本分类提取 · LLM超时45s</text>
  <rect x="590" y="180" width="220" height="108" rx="10" fill="#005F73" stroke="#005F73" stroke-width="2"/>
  <text x="700" y="197" text-anchor="middle" font-size="12" font-weight="700" fill="#FFFFFF">🟠 Track B  自动切换</text>
  <rect x="602" y="212" width="196" height="56" rx="5" fill="rgba(255,255,255,0.1)"/>
  <text x="700" y="230" text-anchor="middle" font-size="10" fill="rgba(255,255,255,0.9)">glm-4.5V</text>
  <text x="700" y="244" text-anchor="middle" font-size="9" fill="rgba(255,255,255,0.6)">多模态视觉模型 · 超时60s</text>
  <text x="700" y="258" text-anchor="middle" font-size="9" fill="#4FC3F7">直接「看图」理解发票内容</text>
  <text x="700" y="276" text-anchor="middle" font-size="9" fill="rgba(255,255,255,0.6)">适合复杂排版 · 图片类发票</text>
  <line x1="160" y1="288" x2="160" y2="308" stroke="#1A3A5C" stroke-width="2" marker-end="url(#arr2)"/>
  <line x1="700" y1="288" x2="700" y2="308" stroke="#00BFA5" stroke-width="2" marker-end="url(#arr3)"/>
  <polygon points="160,308 195,328 160,348 125,328" fill="#E2E8F0" stroke="#1A3A5C" stroke-width="2"/>
  <text x="160" y="326" text-anchor="middle" font-size="9" fill="#1A2B4A" font-weight="700">成功?</text>
  <polygon points="700,308 735,328 700,348 665,328" fill="#E2E8F0" stroke="#005F73" stroke-width="2"/>
  <text x="700" y="326" text-anchor="middle" font-size="9" fill="#1A2B4A" font-weight="700">成功?</text>
  <line x1="160" y1="348" x2="160" y2="368" stroke="#2D9E8F" stroke-width="2" marker-end="url(#arr5)"/>
  <text x="148" y="362" text-anchor="end" font-size="9" fill="#2D9E8F">✅ 是</text>
  <line x1="195" y1="328" x2="590" y2="328" stroke="#E53E3E" stroke-width="1.5" stroke-dasharray="5,3"/>
  <text x="392" y="322" text-anchor="middle" font-size="9" fill="#E53E3E">❌ 失败 → 自动切换 Track B</text>
  <line x1="700" y1="348" x2="700" y2="368" stroke="#2D9E8F" stroke-width="2" marker-end="url(#arr5)"/>
  <text x="712" y="362" font-size="9" fill="#2D9E8F">✅ 是</text>
  <line x1="665" y1="328" x2="530" y2="328" stroke="#E53E3E" stroke-width="1.5" stroke-dasharray="5,3"/>
  <line x1="530" y1="328" x2="530" y2="368" stroke="#F6C90E" stroke-width="2" marker-end="url(#arr4)"/>
  <text x="595" y="345" text-anchor="middle" font-size="9" fill="#E53E3E">❌ 失败</text>
  <rect x="440" y="368" width="180" height="38" rx="8" fill="#744210" stroke="#F6C90E" stroke-width="1.5"/>
  <text x="530" y="383" text-anchor="middle" font-size="11" font-weight="700" fill="#F6C90E">⚡ Local Fallback</text>
  <text x="530" y="397" text-anchor="middle" font-size="9" fill="rgba(255,255,255,0.7)">正则匹配 · 100% 离线 · 零消耗</text>
  <rect x="90" y="368" width="140" height="38" rx="8" fill="#00BFA5"/>
  <text x="160" y="383" text-anchor="middle" font-size="12" font-weight="700" fill="#FFFFFF">✅ 识别成功</text>
  <text x="160" y="397" text-anchor="middle" font-size="9" fill="rgba(255,255,255,0.85)">结构化 JSON · 归档</text>
  <rect x="630" y="368" width="140" height="38" rx="8" fill="#00BFA5"/>
  <text x="700" y="383" text-anchor="middle" font-size="12" font-weight="700" fill="#FFFFFF">✅ 识别成功</text>
  <text x="700" y="397" text-anchor="middle" font-size="9" fill="rgba(255,255,255,0.85)">结构化 JSON · 归档</text>
  <line x1="440" y1="387" x2="230" y2="387" stroke="#2D9E8F" stroke-width="1.5" marker-end="url(#arr5)"/>
</svg>
